<?xml version="1.0" encoding="utf-8"?>
<!-- Generator: Adobe Illustrator 26.3.1, SVG Export Plug-In . SVG Version: 6.00 Build 0)  -->
<svg version="1.1" id="Capa_1" xmlns="http://www.w3.org/2000/svg" xmlns:xlink="http://www.w3.org/1999/xlink" x="0px" y="0px"
	 viewBox="0 0 350 350" style="enable-background:new 0 0 350 350;" xml:space="preserve">
<style type="text/css">
	.st0{fill:#1A0300;}
	.st1{fill:#1A000C;}
	.st2{fill:#1A0019;}
	.st3{fill:#0C001A;}
	.st4{fill:#00051A;}
	.st5{fill:#000E1A;}
	.st6{fill:#001A1A;}
	.st7{fill:#001A0E;}
	.st8{fill:#001A00;}
	.st9{fill:#0E1A00;}
	.st10{fill:#1A1900;}
	.st11{fill:#1A0E00;}
	.st12{fill:#330700;}
	.st13{fill:#330018;}
	.st14{fill:#330032;}
	.st15{fill:#170033;}
	.st16{fill:#000933;}
	.st17{fill:#001D33;}
	.st18{fill:#003333;}
	.st19{fill:#00331D;}
	.st20{fill:#003300;}
	.st21{fill:#1C3300;}
	.st22{fill:#333200;}
	.st23{fill:#331D00;}
	.st24{fill:#660F00;}
	.st25{fill:#660030;}
	.st26{fill:#660064;}
	.st27{fill:#2E0066;}
	.st28{fill:#001366;}
	.st29{fill:#003B66;}
	.st30{fill:#006566;}
	.st31{fill:#00663B;}
	.st32{fill:#006600;}
	.st33{fill:#386600;}
	.st34{fill:#666400;}
	.st35{fill:#663900;}
	.st36{fill:#991600;}
	.st37{fill:#990048;}
	.st38{fill:#990096;}
	.st39{fill:#450099;}
	.st40{fill:#001C99;}
	.st41{fill:#005999;}
	.st42{fill:#009899;}
	.st43{fill:#009958;}
	.st44{fill:#009900;}
	.st45{fill:#549900;}
	.st46{fill:#999600;}
	.st47{fill:#995600;}
	.st48{fill:#CC1E00;}
	.st49{fill:#CC0060;}
	.st50{fill:#CC00C8;}
	.st51{fill:#5C00CC;}
	.st52{fill:#0026CC;}
	.st53{fill:#0077CC;}
	.st54{fill:#00CACC;}
	.st55{fill:#00CC75;}
	.st56{fill:#00CC00;}
	.st57{fill:#70CC00;}
	.st58{fill:#CCC800;}
	.st59{fill:#CC7300;}
	.st60{fill:#FF2600;}
	.st61{fill:#FF0077;}
	.st62{fill:#FF00FA;}
	.st63{fill:#7300FF;}
	.st64{fill:#002FFF;}
	.st65{fill:#0095FF;}
	.st66{fill:#00FDFF;}
	.st67{fill:#00FF92;}
	.st68{fill:#00FF00;}
	.st69{fill:#8CFF00;}
	.st70{fill:#FFFA00;}
	.st71{fill:#FF9000;}
	.st72{fill:#FF5133;}
	.st73{fill:#FF3391;}
	.st74{fill:#FF33FB;}
	.st75{fill:#8F33FF;}
	.st76{fill:#3359FF;}
	.st77{fill:#33AAFF;}
	.st78{fill:#33FFFF;}
	.st79{fill:#33FFAF;}
	.st80{fill:#33FF33;}
	.st81{fill:#9FFF33;}
	.st82{fill:#FFFF33;}
	.st83{fill:#FFA633;}
	.st84{fill:#FF7D66;}
	.st85{fill:#FF66AD;}
	.st86{fill:#FF66FC;}
	.st87{fill:#AB66FF;}
	.st88{fill:#6683FF;}
	.st89{fill:#66BFFF;}
	.st90{fill:#66FFFF;}
	.st91{fill:#66FFC3;}
	.st92{fill:#66FF66;}
	.st93{fill:#B7FF66;}
	.st94{fill:#FFFF66;}
	.st95{fill:#FFBC66;}
	.st96{fill:#FFA899;}
	.st97{fill:#FF99C8;}
	.st98{fill:#FF99FD;}
	.st99{fill:#C799FF;}
	.st100{fill:#99ACFF;}
	.st101{fill:#99D4FF;}
	.st102{fill:#99FFFF;}
	.st103{fill:#99FFD7;}
	.st104{fill:#99FF99;}
	.st105{fill:#CFFF99;}
	.st106{fill:#FFFF99;}
	.st107{fill:#FFD299;}
	.st108{fill:#FFD4CC;}
	.st109{fill:#FFCCE4;}
	.st110{fill:#FFCCFE;}
	.st111{fill:#E3CCFF;}
	.st112{fill:#CCD6FF;}
	.st113{fill:#CCEAFF;}
	.st114{fill:#CCFFFF;}
	.st115{fill:#CCFFEB;}
	.st116{fill:#CCFFCC;}
	.st117{fill:#E7FFCC;}
	.st118{fill:#FFFFCC;}
	.st119{fill:#FFE9CC;}
	.st120{fill:#FFE9E6;}
	.st121{fill:#FFE6F1;}
	.st122{fill:#FFE6FF;}
	.st123{fill:#F1E6FF;}
	.st124{fill:#E6EBFF;}
	.st125{fill:#E6F4FF;}
	.st126{fill:#E6FFFF;}
	.st127{fill:#E6FFF5;}
	.st128{fill:#E6FFE6;}
	.st129{fill:#F3FFE6;}
	.st130{fill:#FFFFE6;}
	.st131{fill:#FFF4E6;}
	.st132{fill:#FFF9F7;}
	.st133{fill:#FFF5F9;}
	.st134{fill:#FFF2FF;}
	.st135{fill:#F8F2FF;}
	.st136{fill:#F2F5FF;}
	.st137{fill:#F2F9FF;}
	.st138{fill:#F2FFFF;}
	.st139{fill:#F2FFFA;}
	.st140{fill:#F2FFF2;}
	.st141{fill:#F9FFF2;}
	.st142{fill:#FFFFF2;}
	.st143{fill:#FFF9F2;}
</style>
<g>
	<g>
		<g>
			<g>
				<g>
					<path class="st0" d="M215.5,30l3.7-13.7c-27-7.3-56.2-7.7-85.2,0l3.7,13.7C164.1,23,190.8,23.4,215.5,30z"/>
				</g>
			</g>
			<g>
				<g>
					<path class="st1" d="M134,16.3c-27,7.2-52.6,21.4-73.8,42.6l10,10c18.1-18.1,41-31.8,67.4-38.9L134,16.3z"/>
				</g>
			</g>
			<g>
				<g>
					<path class="st2" d="M60.2,58.9c-19.8,19.8-34.8,44.8-42.6,73.8l13.7,3.7c6.8-25.5,20.3-48.8,38.9-67.4L60.2,58.9z"/>
				</g>
			</g>
			<g>
				<g>
					<path class="st3" d="M31.3,136.4l-13.7-3.7c-7.3,27-7.7,56.2,0,85.2l13.7-3.7C24.2,187.7,24.7,161,31.3,136.4z"/>
				</g>
			</g>
			<g>
				<g>
					<path class="st4" d="M17.6,217.9c7.2,27,21.4,52.6,42.6,73.8l10-10c-18.1-18.1-31.8-41-38.9-67.4L17.6,217.9z"/>
				</g>
			</g>
			<g>
				<g>
					<path class="st5" d="M60.2,291.7C80,311.4,105,326.5,134,334.2l3.7-13.7c-25.5-6.8-48.8-20.3-67.4-38.9L60.2,291.7z"/>
				</g>
			</g>
			<g>
				<g>
					<path class="st6" d="M137.7,320.6l-3.7,13.7c27,7.3,56.2,7.7,85.2,0l-3.7-13.7l0,0C189,327.6,162.3,327.2,137.7,320.6z"/>
				</g>
			</g>
			<g>
				<g>
					<path class="st7" d="M219.2,334.2c27-7.2,52.6-21.4,73.8-42.6l-10-10c-18.1,18.1-41,31.8-67.4,38.9L219.2,334.2z"/>
				</g>
			</g>
			<g>
				<g>
					<path class="st8" d="M292.9,291.7c19.8-19.8,34.8-44.8,42.6-73.8l-13.7-3.7c-6.8,25.5-20.3,48.8-38.9,67.4L292.9,291.7z"/>
				</g>
			</g>
			<g>
				<g>
					<path class="st9" d="M321.8,214.2l13.7,3.7c7.3-27,7.7-56.2,0-85.2l-13.7,3.7C328.9,162.8,328.5,189.5,321.8,214.2z"/>
				</g>
			</g>
			<g>
				<g>
					<path class="st10" d="M335.5,132.7c-7.2-27-21.4-52.6-42.6-73.8l-10,10c18.1,18.1,31.8,41,38.9,67.4L335.5,132.7z"/>
				</g>
			</g>
			<g>
				<g>
					<path class="st11" d="M292.9,58.9c-19.8-19.8-44.8-34.8-73.8-42.6L215.5,30c25.5,6.8,48.8,20.3,67.4,38.9L292.9,58.9z"/>
				</g>
			</g>
			<g>
				<g>
					<path class="st12" d="M211.8,43.8l3.7-13.7c-24.7-6.6-51.4-7.1-77.8,0l3.7,13.7C165.3,37.4,189.5,37.7,211.8,43.8z"/>
				</g>
			</g>
			<g>
				<g>
					<path class="st13" d="M141.3,43.8L137.7,30c-26.5,7.1-49.4,20.8-67.4,38.9L80.3,79C96.6,62.6,117.4,50.2,141.3,43.8z"/>
				</g>
			</g>
			<g>
				<g>
					<path class="st14" d="M80.3,79L70.2,68.9c-18.6,18.7-32.1,42-38.9,67.4L45,140C51.2,117,63.4,95.9,80.3,79z"/>
				</g>
			</g>
			<g>
				<g>
					<path class="st15" d="M45.1,210.5c-6.4-24-6-48.1,0-70.5l-13.7-3.7c-6.6,24.7-7.1,51.4,0,77.8L45.1,210.5L45.1,210.5z"/>
				</g>
			</g>
			<g>
				<g>
					<path class="st16" d="M45.1,210.5l-13.7,3.7c7.1,26.5,20.8,49.4,38.9,67.4l10.1-10.1C63.9,255.2,51.5,234.5,45.1,210.5z"/>
				</g>
			</g>
			<g>
				<g>
					<path class="st17" d="M80.3,271.6l-10.1,10.1c18.7,18.6,42,32.1,67.4,38.9l3.7-13.7C118.3,300.6,97.2,288.4,80.3,271.6z"/>
				</g>
			</g>
			<g>
				<g>
					<path class="st18" d="M211.8,306.8c-24,6.4-48.1,6-70.5,0l-3.7,13.7c24.7,6.6,51.4,7.1,77.8,0l0,0L211.8,306.8L211.8,306.8z"/>
				</g>
			</g>
			<g>
				<g>
					<path class="st19" d="M211.8,306.8l3.7,13.7c26.5-7.1,49.4-20.8,67.4-38.9l-10.1-10.1C256.5,288,235.8,300.4,211.8,306.8z"/>
				</g>
			</g>
			<g>
				<g>
					<path class="st20" d="M272.9,271.6l10.1,10.1c18.6-18.7,32.1-42,38.9-67.4l-13.7-3.7C301.9,233.6,289.7,254.7,272.9,271.6z"/>
				</g>
			</g>
			<g>
				<g>
					<path class="st21" d="M308.1,210.5l13.7,3.7c6.6-24.7,7.1-51.4,0-77.8l-13.7,3.7C314.5,164,314.1,188.2,308.1,210.5z"/>
				</g>
			</g>
			<g>
				<g>
					<path class="st22" d="M308.1,140l13.7-3.7c-7.1-26.5-20.8-49.4-38.9-67.4L272.9,79C289.2,95.3,301.7,116.1,308.1,140z"/>
				</g>
			</g>
			<g>
				<g>
					<path class="st23" d="M272.9,79l10.1-10.1c-18.7-18.6-42-32.1-67.4-38.9l-3.7,13.7C234.9,50,256,62.1,272.9,79z"/>
				</g>
			</g>
			<g>
				<g>
					<path class="st24" d="M208.1,57.5l3.7-13.7c-22.3-6-46.5-6.4-70.5,0l3.7,13.7C166.5,51.8,188.1,52.1,208.1,57.5z"/>
				</g>
			</g>
			<g>
				<g>
					<path class="st25" d="M145,57.5l-3.7-13.7c-24,6.4-44.7,18.8-61,35.2l10.1,10.1C105,74.4,123.6,63.3,145,57.5z"/>
				</g>
			</g>
			<g>
				<g>
					<path class="st26" d="M90.3,89.1L80.3,79c-16.9,16.9-29,38-35.2,61l13.7,3.7C64.3,123.1,75.2,104.2,90.3,89.1z"/>
				</g>
			</g>
			<g>
				<g>
					<path class="st27" d="M58.8,143.7L45,140c-6,22.3-6.4,46.5,0,70.5v0l13.7-3.7C53.1,185.4,53.4,163.7,58.8,143.7z"/>
				</g>
			</g>
			<g>
				<g>
					<path class="st28" d="M58.8,206.8l-13.7,3.7c6.4,24,18.8,44.7,35.2,61l10.1-10.1C75.7,246.9,64.5,228.3,58.8,206.8z"/>
				</g>
			</g>
			<g>
				<g>
					<path class="st29" d="M90.3,261.5l-10.1,10.1c16.9,16.9,38,29,61,35.2l3.7-13.7C124.4,287.5,105.5,276.6,90.3,261.5z"/>
				</g>
			</g>
			<g>
				<g>
					<path class="st30" d="M208.1,293.1c-21.5,5.7-43.1,5.4-63.1,0l-3.7,13.7c22.3,6,46.5,6.4,70.5,0h0L208.1,293.1L208.1,293.1z"/>
				</g>
			</g>
			<g>
				<g>
					<path class="st31" d="M208.1,293.1l3.7,13.7c24-6.4,44.7-18.8,61-35.2l-10.1-10.1C248.2,276.2,229.6,287.3,208.1,293.1z"/>
				</g>
			</g>
			<g>
				<g>
					<path class="st32" d="M262.8,261.5l10.1,10.1c16.9-16.9,29-38,35.2-61l-13.7-3.7C288.8,227.5,277.9,246.4,262.8,261.5z"/>
				</g>
			</g>
			<g>
				<g>
					<path class="st33" d="M308.1,140l-13.7,3.7c5.7,21.5,5.4,43.1,0,63.1l13.7,3.7C314.1,188.2,314.5,164,308.1,140z"/>
				</g>
			</g>
			<g>
				<g>
					<path class="st34" d="M294.4,143.7l13.7-3.7c-6.4-24-18.8-44.7-35.2-61l-10.1,10.1C277.5,103.7,288.6,122.3,294.4,143.7z"/>
				</g>
			</g>
			<g>
				<g>
					<path class="st35" d="M262.8,89.1L272.9,79c-16.9-16.9-38-29-61-35.2l-3.7,13.7C228.8,63,247.7,74,262.8,89.1z"/>
				</g>
			</g>
			<g>
				<g>
					<path class="st36" d="M204.5,71.2l3.7-13.7c-20-5.4-41.7-5.7-63.1,0l3.7,13.7C167.7,66.2,186.8,66.5,204.5,71.2z"/>
				</g>
			</g>
			<g>
				<g>
					<path class="st37" d="M148.7,71.2L145,57.5c-21.5,5.7-40,16.9-54.7,31.5l10.1,10.1C113.3,86.2,129.7,76.3,148.7,71.2z"/>
				</g>
			</g>
			<g>
				<g>
					<path class="st38" d="M100.4,99.1L90.3,89.1c-15.1,15.1-26,34-31.6,54.7l13.7,3.7C77.4,129.2,87.1,112.5,100.4,99.1z"/>
				</g>
			</g>
			<g>
				<g>
					<path class="st39" d="M72.5,203.2c-5.1-19-4.8-38.1,0-55.8l-13.7-3.7c-5.4,20-5.7,41.7,0,63.1L72.5,203.2L72.5,203.2z"/>
				</g>
			</g>
			<g>
				<g>
					<path class="st40" d="M72.5,203.2l-13.7,3.7c5.7,21.5,16.9,40,31.5,54.7l10.1-10.1C87.4,238.5,77.6,222.1,72.5,203.2z"/>
				</g>
			</g>
			<g>
				<g>
					<path class="st41" d="M100.4,251.5l-10.1,10.1c15.1,15.1,34,26,54.7,31.6l3.7-13.7C130.5,274.4,113.8,264.8,100.4,251.5z"/>
				</g>
			</g>
			<g>
				<g>
					<path class="st42" d="M204.5,279.3c-19,5.1-38.1,4.8-55.8,0l-3.7,13.7c20,5.4,41.7,5.7,63.1,0l0,0L204.5,279.3L204.5,279.3z"/>
				</g>
			</g>
			<g>
				<g>
					<path class="st43" d="M204.5,279.3l3.7,13.7c21.5-5.7,40-16.9,54.7-31.5l-10.1-10.1C239.8,264.4,223.4,274.3,204.5,279.3z"/>
				</g>
			</g>
			<g>
				<g>
					<path class="st44" d="M252.8,251.5l10.1,10.1c15.1-15.1,26-34,31.6-54.7l-13.7-3.7C275.7,221.4,266.1,238.1,252.8,251.5z"/>
				</g>
			</g>
			<g>
				<g>
					<path class="st45" d="M280.6,203.2l13.7,3.7c5.4-20,5.7-41.7,0-63.1l-13.7,3.7C285.7,166.4,285.4,185.5,280.6,203.2z"/>
				</g>
			</g>
			<g>
				<g>
					<path class="st46" d="M280.6,147.4l13.7-3.7c-5.7-21.5-16.9-40-31.5-54.7l-10.1,10.1C265.7,112,275.5,128.5,280.6,147.4z"/>
				</g>
			</g>
			<g>
				<g>
					<path class="st47" d="M252.8,99.1l10.1-10.1c-15.1-15.1-34-26-54.7-31.6l-3.7,13.7C222.7,76.1,239.4,85.8,252.8,99.1z"/>
				</g>
			</g>
			<g>
				<g>
					<path class="st48" d="M200.8,85l3.7-13.7c-17.7-4.8-36.8-5.1-55.8,0l3.7,13.7C168.8,80.6,185.4,80.8,200.8,85z"/>
				</g>
			</g>
			<g>
				<g>
					<path class="st49" d="M152.4,85l-3.7-13.7c-19,5.1-35.4,14.9-48.3,27.9l10.1,10.1C121.7,97.9,135.9,89.4,152.4,85z"/>
				</g>
			</g>
			<g>
				<g>
					<path class="st50" d="M110.5,109.2l-10.1-10.1c-13.3,13.4-23,30.1-27.9,48.3l13.7,3.7C90.5,135.3,98.9,120.8,110.5,109.2z"/>
				</g>
			</g>
			<g>
				<g>
					<path class="st51" d="M86.3,151.1l-13.7-3.7c-4.8,17.7-5.1,36.8,0,55.8v0l13.7-3.7C81.9,183,82.1,166.4,86.3,151.1z"/>
				</g>
			</g>
			<g>
				<g>
					<path class="st52" d="M86.3,199.5l-13.7,3.7c5.1,19,14.9,35.4,27.9,48.3l10.1-10.1C99.2,230.2,90.7,215.9,86.3,199.5z"/>
				</g>
			</g>
			<g>
				<g>
					<path class="st53" d="M110.5,241.4l-10.1,10.1c13.4,13.3,30.1,23,48.3,27.9l3.7-13.7C136.5,261.4,122.1,253,110.5,241.4z"/>
				</g>
			</g>
			<g>
				<g>
					<path class="st54" d="M152.4,265.6l-3.7,13.7c17.7,4.8,36.8,5.1,55.8,0l0,0l-3.7-13.7C184.3,270,167.7,269.7,152.4,265.6z"/>
				</g>
			</g>
			<g>
				<g>
					<path class="st55" d="M200.8,265.6l3.7,13.7c19-5.1,35.4-14.9,48.3-27.9l-10.1-10.1C231.5,252.7,217.2,261.2,200.8,265.6z"/>
				</g>
			</g>
			<g>
				<g>
					<path class="st56" d="M242.7,241.4l10.1,10.1c13.3-13.4,23-30.1,27.9-48.3l-13.7-3.7C262.6,215.3,254.3,229.8,242.7,241.4z"/>
				</g>
			</g>
			<g>
				<g>
					<path class="st57" d="M266.9,199.5l13.7,3.7c4.8-17.7,5.1-36.8,0-55.8l-13.7,3.7C271.3,167.5,271,184.1,266.9,199.5z"/>
				</g>
			</g>
			<g>
				<g>
					<path class="st58" d="M242.7,109.2c11.2,11.2,19.8,25.5,24.2,41.9l13.7-3.7c-5.1-19-14.9-35.4-27.9-48.3L242.7,109.2z"/>
				</g>
			</g>
			<g>
				<g>
					<path class="st59" d="M242.7,109.2l10.1-10.1c-13.4-13.3-30.1-23-48.3-27.9L200.8,85C216.6,89.2,231.1,97.6,242.7,109.2z"/>
				</g>
			</g>
			<g>
				<g>
					<path class="st60" d="M197.1,98.7l3.7-13.7c-15.3-4.1-31.9-4.4-48.4,0l3.7,13.7C170,95,184.1,95.2,197.1,98.7z"/>
				</g>
			</g>
			<g>
				<g>
					<path class="st61" d="M156.1,98.7L152.4,85c-16.5,4.4-30.7,12.9-41.9,24.2l10.1,10.1C130,109.7,142.1,102.4,156.1,98.7z"/>
				</g>
			</g>
			<g>
				<g>
					<path class="st62" d="M120.5,119.2l-10.1-10.1c-11.6,11.6-19.9,26.1-24.2,41.9l13.7,3.7C103.6,141.3,110.7,129.1,120.5,119.2z"
						/>
				</g>
			</g>
			<g>
				<g>
					<path class="st63" d="M100,195.8c-3.7-14-3.5-28,0-41l-13.7-3.7c-4.1,15.3-4.4,31.9,0,48.4L100,195.8L100,195.8z"/>
				</g>
			</g>
			<g>
				<g>
					<path class="st64" d="M100,195.8l-13.7,3.7c4.4,16.5,12.9,30.7,24.2,41.9l10.1-10.1C111,221.8,103.7,209.8,100,195.8z"/>
				</g>
			</g>
			<g>
				<g>
					<path class="st65" d="M120.5,231.4l-10.1,10.1c11.6,11.6,26.1,19.9,41.9,24.2l3.7-13.7C142.6,248.3,130.3,241.2,120.5,231.4z"
						/>
				</g>
			</g>
			<g>
				<g>
					<path class="st66" d="M156.1,251.9l-3.7,13.7c15.3,4.1,31.9,4.4,48.4,0l-3.7-13.7C183.1,255.6,169.1,255.4,156.1,251.9z"/>
				</g>
			</g>
			<g>
				<g>
					<path class="st67" d="M197.1,251.9l3.7,13.7c16.5-4.4,30.7-12.9,41.9-24.2l-10.1-10.1C223.1,240.9,211,248.1,197.1,251.9z"/>
				</g>
			</g>
			<g>
				<g>
					<path class="st68" d="M232.6,231.4l10.1,10.1c11.6-11.6,19.9-26.1,24.2-41.9l-13.7-3.7C249.6,209.2,242.5,221.5,232.6,231.4z"
						/>
				</g>
			</g>
			<g>
				<g>
					<path class="st69" d="M253.2,195.8l13.7,3.7c4.1-15.3,4.4-31.9,0-48.4l-13.7,3.7C256.9,168.7,256.7,182.8,253.2,195.8z"/>
				</g>
			</g>
			<g>
				<g>
					<path class="st70" d="M253.2,154.8l13.7-3.7c-4.4-16.5-12.9-30.7-24.2-41.9l-10.1,10.1C242.2,128.7,249.4,140.8,253.2,154.8z"
						/>
				</g>
			</g>
			<g>
				<g>
					<path class="st71" d="M232.6,119.2l10.1-10.1c-11.6-11.6-26.1-19.9-41.9-24.2l-3.7,13.7C210.5,102.3,222.8,109.4,232.6,119.2z"
						/>
				</g>
			</g>
			<g>
				<g>
					<path class="st72" d="M193.4,112.4l3.7-13.7c-13-3.5-27.1-3.7-41,0l3.7,13.7C171.2,109.4,182.7,109.6,193.4,112.4z"/>
				</g>
			</g>
			<g>
				<g>
					<path class="st73" d="M159.7,112.4l-3.7-13.7c-14,3.7-26,11-35.6,20.5l10.1,10.1C138.4,121.4,148.3,115.5,159.7,112.4z"/>
				</g>
			</g>
			<g>
				<g>
					<path class="st74" d="M130.6,129.3l-10.1-10.1c-9.8,9.8-16.9,22.1-20.5,35.5l13.7,3.7C116.7,147.4,122.5,137.3,130.6,129.3z"/>
				</g>
			</g>
			<g>
				<g>
					<path class="st75" d="M113.7,158.4l-13.7-3.7c-3.5,13-3.7,27.1,0,41v0l13.7-3.7C110.7,180.7,110.8,169.1,113.7,158.4z"/>
				</g>
			</g>
			<g>
				<g>
					<path class="st76" d="M113.7,192.1l-13.7,3.7c3.7,14,11,26,20.5,35.5l10.1-10.1C122.7,213.5,116.8,203.6,113.7,192.1z"/>
				</g>
			</g>
			<g>
				<g>
					<path class="st77" d="M130.6,221.3l-10.1,10.1c9.8,9.8,22.1,16.9,35.5,20.5l3.7-13.7C148.7,235.2,138.6,229.4,130.6,221.3z"/>
				</g>
			</g>
			<g>
				<g>
					<path class="st78" d="M159.7,238.1l-3.7,13.7c13,3.5,27.1,3.7,41,0l-3.7-13.7C182,241.2,170.4,241,159.7,238.1z"/>
				</g>
			</g>
			<g>
				<g>
					<path class="st79" d="M193.4,238.1l3.7,13.7c14-3.7,26-11,35.5-20.5l-10.1-10.1C214.8,229.1,204.9,235.1,193.4,238.1z"/>
				</g>
			</g>
			<g>
				<g>
					<path class="st80" d="M222.6,221.3l10.1,10.1c9.8-9.8,16.9-22.1,20.5-35.5l-13.7-3.7C236.5,203.1,230.7,213.2,222.6,221.3z"/>
				</g>
			</g>
			<g>
				<g>
					<path class="st81" d="M239.4,192.1l13.7,3.7c3.5-13,3.7-27.1,0-41l-13.7,3.7C242.5,169.9,242.3,181.5,239.4,192.1z"/>
				</g>
			</g>
			<g>
				<g>
					<path class="st82" d="M239.4,158.4L239.4,158.4l13.7-3.7c-3.7-14-11-26-20.5-35.6l-10.1,10.1
						C230.4,137.1,236.4,147,239.4,158.4z"/>
				</g>
			</g>
			<g>
				<g>
					<path class="st83" d="M193.4,112.4c11,3,21.1,8.8,29.2,16.8l10.1-10.1c-9.8-9.8-22.1-16.9-35.5-20.5L193.4,112.4z"/>
				</g>
			</g>
			<g>
				<g>
					<path class="st84" d="M189.7,126.2l3.7-13.7c-10.7-2.9-22.2-3.1-33.7,0l3.7,13.7C172.4,123.8,181.4,123.9,189.7,126.2z"/>
				</g>
			</g>
			<g>
				<g>
					<path class="st85" d="M163.4,126.2l-3.7-13.7c-11.4,3.1-21.4,9-29.2,16.8l10.1,10.1C146.7,133.2,154.5,128.6,163.4,126.2z"/>
				</g>
			</g>
			<g>
				<g>
					<path class="st86" d="M140.6,139.3l-10.1-10.1c-8.1,8.1-13.9,18.2-16.8,29.2l13.7,3.7C129.8,153.5,134.3,145.6,140.6,139.3z"/>
				</g>
			</g>
			<g>
				<g>
					<path class="st87" d="M127.5,162.1l-13.7-3.7c-2.9,10.7-3.1,22.2,0,33.7l13.7-3.7C125.1,179.5,125.2,170.5,127.5,162.1z"/>
				</g>
			</g>
			<g>
				<g>
					<path class="st88" d="M127.5,188.4l-13.7,3.7c3.1,11.4,9,21.4,16.8,29.2l10.1-10.1C134.5,205.1,129.9,197.4,127.5,188.4z"/>
				</g>
			</g>
			<g>
				<g>
					<path class="st89" d="M140.6,211.2l-10.1,10.1c8.1,8.1,18.2,13.9,29.2,16.8l3.7-13.7C154.8,222.1,146.9,217.5,140.6,211.2z"/>
				</g>
			</g>
			<g>
				<g>
					<path class="st90" d="M163.4,224.4l-3.7,13.7c10.7,2.9,22.2,3.1,33.7,0l-3.7-13.7C180.8,226.8,171.8,226.7,163.4,224.4z"/>
				</g>
			</g>
			<g>
				<g>
					<path class="st91" d="M189.7,224.4l3.7,13.7c11.4-3.1,21.4-9,29.2-16.8l-10.1-10.1C206.4,217.4,198.7,222,189.7,224.4z"/>
				</g>
			</g>
			<g>
				<g>
					<path class="st92" d="M212.5,211.2l10.1,10.1c8.1-8.1,13.9-18.2,16.8-29.2l-13.7-3.7C223.4,197.1,218.8,204.9,212.5,211.2z"/>
				</g>
			</g>
			<g>
				<g>
					<path class="st93" d="M225.7,188.5l13.7,3.7c2.9-10.7,3.1-22.2,0-33.7l-13.7,3.7C228.1,171.1,227.9,180.1,225.7,188.5z"/>
				</g>
			</g>
			<g>
				<g>
					<path class="st94" d="M225.7,162.1l13.7-3.7l0,0c-3.1-11.4-9-21.4-16.8-29.2l-10.1,10.1C218.7,145.4,223.3,153.2,225.7,162.1z"
						/>
				</g>
			</g>
			<g>
				<g>
					<path class="st95" d="M212.5,139.3l10.1-10.1c-8.1-8.1-18.2-13.9-29.2-16.8l-3.7,13.7C198.3,128.5,206.2,133,212.5,139.3z"/>
				</g>
			</g>
			<g>
				<g>
					<path class="st96" d="M163.4,126.2l3.7,13.7c6.4-1.7,13-1.6,19,0l3.7-13.7C181.4,123.9,172.4,123.8,163.4,126.2z"/>
				</g>
			</g>
			<g>
				<g>
					<path class="st97" d="M167.1,139.9l-3.7-13.7c-8.9,2.4-16.7,7-22.8,13.2l10.1,10.1C155.1,145,160.7,141.6,167.1,139.9z"/>
				</g>
			</g>
			<g>
				<g>
					<path class="st98" d="M150.7,149.4l-10.1-10.1c-6.3,6.3-10.8,14.2-13.2,22.8l13.7,3.7C142.9,159.6,146.1,153.9,150.7,149.4z"/>
				</g>
			</g>
			<g>
				<g>
					<path class="st99" d="M141.2,184.8c-1.7-6.4-1.6-13,0-19l-13.7-3.7c-2.2,8.3-2.4,17.4,0,26.3L141.2,184.8L141.2,184.8z"/>
				</g>
			</g>
			<g>
				<g>
					<path class="st100" d="M141.2,184.8l-13.7,3.7c2.4,8.9,7,16.7,13.2,22.8l10.1-10.1C146.3,196.8,142.9,191.2,141.2,184.8z"/>
				</g>
			</g>
			<g>
				<g>
					<path class="st101" d="M150.7,201.2l-10.1,10.1c6.3,6.3,14.2,10.8,22.8,13.2l3.7-13.7C160.9,209,155.2,205.7,150.7,201.2z"/>
				</g>
			</g>
			<g>
				<g>
					<path class="st102" d="M186.1,210.7c-6.4,1.7-13,1.6-19,0l-3.7,13.7c8.3,2.2,17.4,2.4,26.3,0L186.1,210.7L186.1,210.7z"/>
				</g>
			</g>
			<g>
				<g>
					<path class="st103" d="M186.1,210.7l3.7,13.7c8.9-2.4,16.7-7,22.8-13.2l-10.1-10.1C198.1,205.6,192.5,208.9,186.1,210.7z"/>
				</g>
			</g>
			<g>
				<g>
					<path class="st104" d="M202.5,201.2l10.1,10.1c6.3-6.3,10.8-14.2,13.2-22.8l-13.7-3.7C210.3,191,207,196.6,202.5,201.2z"/>
				</g>
			</g>
			<g>
				<g>
					<path class="st105" d="M212,184.8l13.7,3.7c2.2-8.3,2.4-17.4,0-26.3l-13.7,3.7C213.7,172.3,213.6,178.8,212,184.8z"/>
				</g>
			</g>
			<g>
				<g>
					<path class="st106" d="M212,165.8L212,165.8l13.7-3.7c-2.4-8.9-7-16.7-13.2-22.8l-10.1,10.1C206.9,153.8,210.2,159.4,212,165.8
						z"/>
				</g>
			</g>
			<g>
				<g>
					<path class="st107" d="M202.5,149.4l10.1-10.1c-6.3-6.3-14.2-10.8-22.8-13.2l-3.7,13.7C192.3,141.6,197.9,144.8,202.5,149.4z"
						/>
				</g>
			</g>
			<g>
				<g>
					<path class="st108" d="M182.4,153.6l3.7-13.7c-6-1.6-12.5-1.7-19,0l3.7,13.7C174.7,152.6,178.7,152.6,182.4,153.6z"/>
				</g>
			</g>
			<g>
				<g>
					<path class="st109" d="M170.8,153.6l-3.7-13.7c-6.4,1.7-12,5.1-16.4,9.5l10.1,10.1C163.4,156.7,166.8,154.7,170.8,153.6z"/>
				</g>
			</g>
			<g>
				<g>
					<path class="st110" d="M160.7,159.4l-10.1-10.1c-4.5,4.5-7.8,10.2-9.5,16.4l13.7,3.7C155.9,165.7,157.9,162.2,160.7,159.4z"/>
				</g>
			</g>
			<g>
				<g>
					<path class="st111" d="M154.9,169.5l-13.7-3.7c-1.6,6-1.7,12.5,0,19l0,0l13.7-3.7C153.9,177.1,153.9,173.2,154.9,169.5z"/>
				</g>
			</g>
			<g>
				<g>
					<path class="st112" d="M154.9,181.1l-13.7,3.7c1.7,6.4,5.1,12,9.5,16.4l10.1-10.1C158,188.4,156,185,154.9,181.1z"/>
				</g>
			</g>
			<g>
				<g>
					<path class="st113" d="M160.7,191.1l-10.1,10.1c4.5,4.5,10.2,7.8,16.4,9.5l3.7-13.7C167,195.9,163.5,193.9,160.7,191.1z"/>
				</g>
			</g>
			<g>
				<g>
					<path class="st114" d="M182.4,196.9c-3.9,1.1-7.9,1-11.6,0l-3.7,13.7c6,1.6,12.5,1.7,19,0l0,0L182.4,196.9L182.4,196.9z"/>
				</g>
			</g>
			<g>
				<g>
					<path class="st115" d="M182.4,196.9l3.7,13.7c6.4-1.7,12-5.1,16.4-9.5l-10.1-10.1C189.7,193.8,186.3,195.9,182.4,196.9z"/>
				</g>
			</g>
			<g>
				<g>
					<path class="st116" d="M192.4,191.1l10.1,10.1c4.5-4.5,7.8-10.2,9.5-16.4l-13.7-3.7C197.2,184.9,195.2,188.4,192.4,191.1z"/>
				</g>
			</g>
			<g>
				<g>
					<path class="st117" d="M198.2,181.1l13.7,3.7c1.6-6,1.7-12.5,0-19l-13.7,3.7C199.3,173.4,199.2,177.4,198.2,181.1z"/>
				</g>
			</g>
			<g>
				<g>
					<path class="st118" d="M198.2,169.5l13.7-3.7l0,0c-1.7-6.4-5.1-12-9.5-16.4l-10.1,10.1C195.1,162.1,197.2,165.5,198.2,169.5z"
						/>
				</g>
			</g>
			<g>
				<g>
					<path class="st119" d="M192.4,159.4l10.1-10.1c-4.5-4.5-10.2-7.8-16.4-9.5l-3.7,13.7C186.2,154.7,189.6,156.7,192.4,159.4z"/>
				</g>
			</g>
			<g>
				<g>
					<path class="st120" d="M178.7,167.4l3.7-13.7c-3.7-1-7.7-1.1-11.6,0l3.7,13.7C175.9,167,177.4,167,178.7,167.4z"/>
				</g>
			</g>
			<g>
				<g>
					<path class="st121" d="M170.8,169.5c1-1,2.2-1.7,3.7-2.1l-3.7-13.7c-3.9,1.1-7.4,3.1-10.1,5.8L170.8,169.5z"/>
				</g>
			</g>
			<g>
				<g>
					<path class="st122" d="M170.8,169.5l-10.1-10.1c-2.8,2.8-4.8,6.3-5.8,10.1l13.7,3.7C169,171.8,169.8,170.5,170.8,169.5z"/>
				</g>
			</g>
			<g>
				<g>
					<path class="st123" d="M168.7,177.4c-0.4-1.4-0.4-2.9,0-4.2l-13.7-3.7c-1,3.7-1.1,7.7,0,11.6L168.7,177.4L168.7,177.4z"/>
				</g>
			</g>
			<g>
				<g>
					<path class="st124" d="M168.7,177.4l-13.7,3.7c1.1,3.9,3.1,7.4,5.8,10.1l10.1-10.1C169.8,180.1,169,178.9,168.7,177.4z"/>
				</g>
			</g>
			<g>
				<g>
					<path class="st125" d="M170.8,181.1l-10.1,10.1c2.8,2.8,6.3,4.8,10,5.8l3.7-13.7C173.1,182.8,171.8,182.1,170.8,181.1z"/>
				</g>
			</g>
			<g>
				<g>
					<path class="st126" d="M178.7,183.2c-1.4,0.4-2.9,0.4-4.2,0l-3.7,13.7c3.7,1,7.7,1.1,11.6,0h0L178.7,183.2L178.7,183.2z"/>
				</g>
			</g>
			<g>
				<g>
					<path class="st127" d="M178.7,183.2l3.7,13.7c3.9-1.1,7.4-3.1,10.1-5.8l-10.1-10.1C181.4,182.1,180.1,182.8,178.7,183.2z"/>
				</g>
			</g>
			<g>
				<g>
					<path class="st128" d="M182.4,181.1l10.1,10.1c2.8-2.8,4.8-6.3,5.8-10l-13.7-3.7C184.1,178.8,183.4,180.1,182.4,181.1z"/>
				</g>
			</g>
			<g>
				<g>
					<path class="st129" d="M184.5,177.4l13.7,3.7c1-3.7,1.1-7.7,0-11.6l-13.7,3.7C184.9,174.6,184.9,176.1,184.5,177.4z"/>
				</g>
			</g>
			<g>
				<g>
					<path class="st130" d="M184.5,173.2L184.5,173.2l13.7-3.7c-1.1-3.9-3.1-7.4-5.8-10.1l-10.1,10.1
						C183.4,170.5,184.1,171.7,184.5,173.2z"/>
				</g>
			</g>
			<g>
				<g>
					<path class="st131" d="M182.4,169.5l10.1-10.1c-2.8-2.8-6.3-4.8-10.1-5.8l-3.7,13.7C180.1,167.7,181.4,168.5,182.4,169.5z"/>
				</g>
			</g>
			<g>
				<g>
					<path class="st132" d="M178.7,167.4c-1.3-0.4-2.8-0.4-4.2,0l2.1,7.9L178.7,167.4z"/>
				</g>
			</g>
			<g>
				<g>
					<path class="st133" d="M174.5,167.4c-1.4,0.4-2.7,1.1-3.7,2.1l5.8,5.8L174.5,167.4z"/>
				</g>
			</g>
			<g>
				<g>
					<path class="st134" d="M176.6,175.3l-5.8-5.8c-1,1-1.7,2.3-2.1,3.7L176.6,175.3z"/>
				</g>
			</g>
			<g>
				<g>
					<path class="st135" d="M168.7,173.2c-0.4,1.3-0.4,2.8,0,4.2l0,0l7.9-2.1L168.7,173.2z"/>
				</g>
			</g>
			<g>
				<g>
					<path class="st136" d="M168.7,177.4c0.4,1.4,1.1,2.7,2.1,3.7l5.8-5.8L168.7,177.4z"/>
				</g>
			</g>
			<g>
				<g>
					<path class="st137" d="M170.8,181.1c1,1,2.3,1.7,3.7,2.1l2.1-7.9L170.8,181.1z"/>
				</g>
			</g>
			<g>
				<g>
					<path class="st138" d="M174.5,183.2c1.3,0.4,2.8,0.4,4.2,0l0,0l-2.1-7.9L174.5,183.2z"/>
				</g>
			</g>
			<g>
				<g>
					<path class="st139" d="M178.7,183.2c1.4-0.4,2.7-1.1,3.7-2.1l-5.8-5.8L178.7,183.2z"/>
				</g>
			</g>
			<g>
				<g>
					<path class="st140" d="M182.4,181.1c1-1,1.7-2.3,2.1-3.7l-7.9-2.1L182.4,181.1z"/>
				</g>
			</g>
			<g>
				<g>
					<path class="st141" d="M184.5,177.4c0.4-1.3,0.4-2.8,0-4.2l-7.9,2.1L184.5,177.4z"/>
				</g>
			</g>
			<g>
				<g>
					<path class="st142" d="M184.5,173.2L184.5,173.2c-0.4-1.4-1.1-2.7-2.1-3.7l-5.8,5.8L184.5,173.2z"/>
				</g>
			</g>
			<g>
				<g>
					<path class="st143" d="M182.4,169.5c-1-1-2.3-1.7-3.7-2.1l-2.1,7.9L182.4,169.5z"/>
				</g>
			</g>
		</g>
	</g>
</g>
</svg>
