<svg id="Capa_1" data-name="Capa 1" xmlns="http://www.w3.org/2000/svg" viewBox="0 0 50 50"><defs><style>.cls-1{fill:#fff;}</style></defs><title>APROBADOS</title><path class="cls-1" d="M37.42,12.75a1.37,1.37,0,0,0-1.9.32L20.55,34l-6.22-6.16a1.32,1.32,0,0,0-1-.39,1.34,1.34,0,0,0-1,.39,1.68,1.68,0,0,0-.42.94v.05a1.37,1.37,0,0,0,.42,1l7.36,7.33a1.64,1.64,0,0,0,.93.39h.08a1.25,1.25,0,0,0,.42-.08l.15-.08a.36.36,0,0,0,.26-.18.53.53,0,0,0,.24-.23l9.61-13.47,6.3-8.78a1.44,1.44,0,0,0,.23-1A1.34,1.34,0,0,0,37.42,12.75Z"/></svg>