<?xml version="1.0" encoding="utf-8"?>
<!-- Generator: Adobe Illustrator 26.3.1, SVG Export Plug-In . SVG Version: 6.00 Build 0)  -->
<svg version="1.1" id="Capa_1" xmlns="http://www.w3.org/2000/svg" xmlns:xlink="http://www.w3.org/1999/xlink" x="0px" y="0px"
	 viewBox="0 0 329 326" style="enable-background:new 0 0 329 326;" xml:space="preserve">
<style type="text/css">
	.st0{fill:#FFFFFF;}
</style>
<path id="music-icon" class="st0" d="M41.5,258.2c4.7,4.4,9.7,7.9,15.8,10.3c17.8,6.9,33.7,3.4,48-8.2c6.2-5,11.3-11.6,11.4-20.2
	c0.2-24.1,0.2-48.2,0.1-72.3c0-6.2,0.3-7.3,6.3-9.3c9.6-3.2,19.3-6.3,29-9.4c13.7-4.4,27.5-8.7,41.1-13.3s27.2-9.6,40.8-14.4
	c3.4-1.2,5,0.1,5,3.8c0,17.1,0,34.3,0.1,51.4c0,3.6-0.8,4.3-4.3,2.9c-3.8-1.6-6.3-3.5-11.9-4.5c-16.1-1.9-26.8-1.1-39.3,7.6
	c-17,11.9-17.8,36.7-4.3,48.9c7.8,7,15.2,10.6,27.3,11.8c3.3,0.3,0.7,0.2,7.1,0.1c11.8-0.2,23.6-4.6,32.5-13.5
	c5.4-5.4,8.4-12,8.4-19.8c0-24.1,0-48.2,0-72.3c0,0,0,0-0.1,0c0-24.2,0-48.5,0-72.7c0-10.7-8.2-17.2-18.4-14.2
	c-15,4.5-30,9.3-44.8,14.2c-14.2,4.7-28.2,9.7-42.4,14.5c-13.2,4.5-26.5,8.8-39.8,13.1c-4.3,1.4-6.7,4.2-7.8,8.2
	c-0.8,3-0.9,6.2-0.9,9.3c0,31,0.1,62.1,0.2,93.1c0,3.9-1.4,4.8-5.1,3.2c-2.7-1.2-4.6-3-8.9-4.4c-13-4.3-24.2-2-35.8,5
	c-8.7,5.2-16,11.8-18.3,21.8C30.2,239.8,32.6,250,41.5,258.2z M212.5,227.2c-15,0-27.2-8.9-27.2-20c0-11,12.2-20,27.2-20
	s27.2,8.9,27.2,20S227.5,227.2,212.5,227.2z M116.7,124.3L116.7,124.3c0.1-5.1,0.2-10.2,0.1-15.3c-0.1-2.7,0.8-4.1,3.6-4.8
	c5.7-1.5,11.4-3.4,17-5.2c12.4-4,24.8-7.9,37.1-12c9.8-3.3,18.4-6.4,28.2-9.6c6.4-2.1,10.9-3.7,17.4-5.8c3.4-1.1,9.6-3.4,12.9-4.4
	c4.5-1.5,5.9-0.2,6,4.6c0.1,9.2,0.3,18.4,0.2,27.6c0,1.6-1.3,4.1-2.6,4.7c-7.5,3.2-15.2,5.9-22.9,8.7c-6.8,2.4-13.6,4.6-20.5,6.9
	c-6.6,2.1-13.2,4.1-19.8,6.2c-4.8,1.5-9.6,3.2-14.4,4.8c-12.7,4.3-25.3,8.6-38,12.9c-3.1,1-4.2-0.6-4.1-3.4
	C116.7,134.8,116.7,129.6,116.7,124.3z M74,214.8c15,0,27.2,9.4,27.2,21s-12.2,21-27.2,21s-27.2-9.4-27.2-21
	C46.9,224.2,59,214.8,74,214.8z"/>
</svg>
