<?xml version="1.0" encoding="utf-8"?>
<!-- Generator: Adobe Illustrator 26.3.1, SVG Export Plug-In . SVG Version: 6.00 Build 0)  -->
<svg version="1.1" id="Capa_1" xmlns="http://www.w3.org/2000/svg" xmlns:xlink="http://www.w3.org/1999/xlink" x="0px" y="0px"
	 viewBox="0 0 329 326" style="enable-background:new 0 0 329 326;" xml:space="preserve">
<style type="text/css">
	.st0{fill:#FFFFFF;}
</style>
<path id="pause" class="st0" d="M139.5,230h-27.1c-9.1,0-16.5-7.4-16.5-16.5v-101c0-9.1,7.4-16.5,16.5-16.5h27.1
	c9.1,0,16.5,7.4,16.5,16.5v101.1C156,222.6,148.6,230,139.5,230z M232,213.5v-101c0-9.1-7.4-16.5-16.5-16.5h-27.1
	c-9.1,0-16.5,7.4-16.5,16.5v101.1c0,9.1,7.4,16.5,16.5,16.5h27.1C224.6,230,232,222.6,232,213.5z"/>
</svg>
